# xmcd
#
# Track frame offsets:
#	150
#	14800
#	35153
#	55580
#	67937
#	100968
#	114861
#	122917
#	131796
#	148856
#	180405
#	189742
#	197181
#
# Disc length: 2844 seconds
# Revision: 0
# Processed by: cddbd v1.5.2PL0 Copyright (c) Steve Scherf et al.
# Submitted via: dBpowerAMP V12.0
#
DISCID=c30b1a0d
DTITLE=Hale Dwoskin - Absolute Freedom CD 02 - Beyond the Illusion of Time and Space
DYEAR=2005
DGENRE=Speech
TTITLE0=Introduction
TTITLE1=Welcoming What Is - Wanting to Change the Past
TTITLE2=Resisting Memories - Holding On to Memories
TTITLE3=Taking the Now for Granted
TTITLE4=Here and There - In and Out - Inside and Outside
TTITLE5=Being Inside the Scene - Take a Break
TTITLE6=Welcome Back
TTITLE7=Moving the Body
TTITLE8=Surface and Core
TTITLE9=The Past - Now - The Future
TTITLE10=Never Done This - Always Done This
TTITLE11=Trusting Memory - Trusting the Present
TTITLE12=Perceiving - Being
EXTD=
EXTT0=
EXTT1=
EXTT2=
EXTT3=
EXTT4=
EXTT5=
EXTT6=
EXTT7=
EXTT8=
EXTT9=
EXTT10=
EXTT11=
EXTT12=
PLAYORDER=
